<?xml version="1.0" encoding="UTF-8" standalone="no"?>
<!-- Created with Inkscape (http://www.inkscape.org/) -->
<svg
   xmlns:dc="http://purl.org/dc/elements/1.1/"
   xmlns:cc="http://creativecommons.org/ns#"
   xmlns:rdf="http://www.w3.org/1999/02/22-rdf-syntax-ns#"
   xmlns:svg="http://www.w3.org/2000/svg"
   xmlns="http://www.w3.org/2000/svg"
   xmlns:xlink="http://www.w3.org/1999/xlink"
   xmlns:sodipodi="http://sodipodi.sourceforge.net/DTD/sodipodi-0.dtd"
   xmlns:inkscape="http://www.inkscape.org/namespaces/inkscape"
   version="1.0"
   width="1021.9304"
   height="336.17963"
   id="svg2579"
   sodipodi:version="0.32"
   inkscape:version="0.46"
   sodipodi:docname="Welcome_heading.svg"
   inkscape:output_extension="org.inkscape.output.svg.inkscape">
  <metadata
     id="metadata14">
    <rdf:RDF>
      <cc:Work
         rdf:about="">
        <dc:format>image/svg+xml</dc:format>
        <dc:type
           rdf:resource="http://purl.org/dc/dcmitype/StillImage" />
      </cc:Work>
    </rdf:RDF>
  </metadata>
  <sodipodi:namedview
     inkscape:window-height="1000"
     inkscape:window-width="1680"
     inkscape:pageshadow="2"
     inkscape:pageopacity="0.0"
     guidetolerance="10.0"
     gridtolerance="10.0"
     objecttolerance="10.0"
     borderopacity="1.0"
     bordercolor="#666666"
     pagecolor="#ffffff"
     id="base"
     showgrid="false"
     inkscape:zoom="0.53232587"
     inkscape:cx="510.96521"
     inkscape:cy="168.08981"
     inkscape:window-x="-8"
     inkscape:window-y="-8"
     inkscape:current-layer="layer1" />
  <defs
     id="defs2581">
    <inkscape:perspective
       sodipodi:type="inkscape:persp3d"
       inkscape:vp_x="0 : 168.08981 : 1"
       inkscape:vp_y="0 : 1000 : 0"
       inkscape:vp_z="1021.9304 : 168.08981 : 1"
       inkscape:persp3d-origin="510.96521 : 112.05988 : 1"
       id="perspective16" />
    <linearGradient
       id="linearGradient2389">
      <stop
         id="stop2391"
         style="stop-color:#ffffff;stop-opacity:1"
         offset="0" />
      <stop
         id="stop2393"
         style="stop-color:#ffffff;stop-opacity:0"
         offset="1" />
    </linearGradient>
    <linearGradient
       x1="3.7216146"
       y1="125.68014"
       x2="4.6520181"
       y2="298.73523"
       id="linearGradient2395"
       xlink:href="#linearGradient2389"
       gradientUnits="userSpaceOnUse"
       gradientTransform="translate(419.03663,107.58982)" />
    <linearGradient
       inkscape:collect="always"
       xlink:href="#linearGradient2389"
       id="linearGradient2391"
       gradientUnits="userSpaceOnUse"
       gradientTransform="translate(-443.82026,-644.34403)"
       x1="3.7216146"
       y1="125.68014"
       x2="4.6520181"
       y2="298.73523" />
  </defs>
  <g
     transform="translate(79.536636,-207.12952)"
     id="layer1">
    <path
       style="fill:#00ffff;fill-opacity:1;stroke:#000000;stroke-opacity:0"
       d="M -78.106216,208.52342 L 941.89378,208.52342 L 941.89378,542.80913 L -78.106216,542.80913 L -78.106216,208.52342 z"
       id="rect2383" />
    <path
       style="fill:url(#linearGradient2395);fill-opacity:1;stroke:#000000;stroke-opacity:0"
       d="M -79.036636,207.62952 L 941.89354,207.62952 L 941.89354,378.992 L -79.036636,378.992 L -79.036636,207.62952 z"
       id="rect2387" />
    <path
       transform="scale(-1,-1)"
       style="fill:url(#linearGradient2391);fill-opacity:1;stroke:#000000;stroke-opacity:0"
       d="M -941.89355,-544.30432 L 79.036621,-544.30432 L 79.036621,-372.94183 L -941.89355,-372.94183 L -941.89355,-544.30432 z"
       id="rect2389" />
    <path
       style="font-size:144px;font-style:normal;font-variant:normal;font-weight:normal;font-stretch:normal;text-align:start;line-height:125%;writing-mode:lr-tb;text-anchor:start;fill:#000000;fill-opacity:1;stroke:none;stroke-width:1px;stroke-linecap:butt;stroke-linejoin:miter;stroke-opacity:1;font-family:Quicksand Book;-inkscape-font-specification:Quicksand Book"
       d="M 103.6968,334.30241 C 102.8148,334.7015 102.20281,335.34349 101.86082,336.22838 C 101.51882,337.11347 101.55482,338.00745 101.96882,338.91035 L 140.84832,431.35716 C 140.99227,432.07715 141.28027,432.65314 141.71231,433.08514 L 141.85631,433.22913 L 142.1443,433.51713 C 142.72025,433.97312 143.44024,434.21312 144.30428,434.23712 C 145.04821,434.26112 145.7202,434.06913 146.32025,433.66113 C 146.3232,433.65513 146.3532,433.63113 146.41025,433.58913 C 146.4672,433.54713 146.5332,433.52313 146.60825,433.51713 C 146.92019,433.25314 147.16019,432.91714 147.32824,432.50914 C 147.49618,432.34115 147.59218,432.10115 147.61623,431.78915 L 173.3919,370.87794 L 199.02357,431.78915 C 199.14346,431.93315 199.19146,432.07715 199.16757,432.22115 C 199.24546,432.37415 199.34146,432.53614 199.45557,432.70714 C 199.56946,432.87814 199.66546,433.00414 199.74356,433.08514 C 199.82145,433.22613 199.91745,433.34013 200.03156,433.42713 C 200.14545,433.51413 200.24145,433.59213 200.31955,433.66113 C 200.89544,434.06912 201.47143,434.26112 202.04753,434.23712 L 202.47953,434.23712 L 202.76752,434.23712 C 203.2924,434.15912 203.8264,433.91913 204.3695,433.51713 C 204.91238,433.11514 205.33838,432.58714 205.64749,431.93315 L 244.81498,338.91035 C 245.22882,338.00746 245.26482,337.11347 244.92298,336.22838 C 244.58083,335.34349 243.96884,334.7015 243.087,334.30241 C 242.06087,333.88851 241.12488,333.85251 240.27904,334.19441 C 239.4329,334.5365 238.78491,335.14849 238.33506,336.03039 L 202.33553,421.70928 L 176.84786,361.08606 C 176.48178,360.42915 175.98978,359.90715 175.37187,359.52008 C 174.7538,359.13316 174.04581,358.93516 173.2479,358.92609 C 172.58783,358.93517 171.96384,359.13316 171.37593,359.52008 C 170.78786,359.90715 170.30786,360.42915 169.93595,361.08606 L 144.30428,421.70928 L 108.30474,336.03039 C 107.90573,335.1485 107.26374,334.53651 106.37876,334.19441 C 105.49376,333.85251 104.59977,333.88851 103.6968,334.30241 L 103.6968,334.30241 z M 293.71339,434.23712 C 299.75227,434.17412 305.24219,432.71614 310.18318,429.86318 C 315.12405,427.01022 319.138,423.14027 322.22503,418.25333 C 322.71695,417.36535 322.84895,416.47737 322.62102,415.58936 C 322.39296,414.70139 321.87696,413.9574 321.07304,413.35739 C 320.31398,412.91941 319.49199,412.78742 318.60707,412.96139 C 317.72202,413.13541 317.00803,413.65141 316.4651,414.50938 C 314.02307,418.50834 310.80711,421.6343 306.81723,423.88725 C 302.82723,426.14023 298.45929,427.28622 293.71339,427.32521 C 286.25546,427.16022 279.96754,424.57426 274.84964,419.56731 C 269.73168,414.5604 266.89972,408.12249 266.35375,400.25356 L 324.241,400.25356 C 325.20391,400.23859 326.0139,399.9446 326.67097,399.37157 C 327.32788,398.79861 327.66988,398.03662 327.69696,397.0856 L 327.69696,396.65361 L 327.69696,396.50961 C 326.78489,387.07778 323.20894,379.30189 316.96909,373.18191 C 310.72911,367.06205 302.97722,363.8941 293.71339,363.67803 C 283.96949,363.9301 275.8816,367.38605 269.4497,374.0459 C 263.01777,380.70586 259.68182,389.05775 259.44184,399.10157 C 259.68182,409.00747 263.01778,417.27536 269.4497,423.90525 C 275.8816,430.53517 283.96948,433.97912 293.71339,434.23712 L 293.71339,434.23712 z M 293.71339,370.58994 C 300.34326,370.716 306.09118,372.87597 310.95717,377.06986 C 315.82305,381.26386 318.907,386.73578 320.20905,393.48565 L 266.78574,393.48565 C 268.21371,386.67278 271.36966,381.18286 276.25362,377.01586 C 281.13753,372.84897 286.95744,370.707 293.71339,370.58994 L 293.71339,370.58994 z M 353.23976,430.78117 L 353.23976,430.78117 C 353.26674,431.74415 353.60874,432.55414 354.26575,433.21113 C 354.92272,433.86813 355.73271,434.21012 356.69571,434.23712 L 356.69571,434.23712 C 357.72768,434.21012 358.57967,433.86813 359.25168,433.21113 C 359.92365,432.55414 360.27164,431.74415 360.29567,430.78117 L 360.29567,336.89437 L 360.29567,336.89437 C 360.27164,335.93148 359.92365,335.1215 359.25168,334.46441 C 358.57967,333.80751 357.72768,333.46552 356.69571,333.43842 L 356.69571,333.43842 C 355.73271,333.46552 354.92272,333.80752 354.26574,334.46441 C 353.60874,335.1215 353.26674,335.93149 353.23976,336.89437 L 353.23976,430.78117 L 353.23976,430.78117 z M 419.19812,434.23712 L 419.19812,434.23712 C 419.19807,434.23712 419.19807,434.23712 419.19812,434.23712 L 419.19812,434.23712 C 423.40701,434.21312 427.40896,433.54113 431.20396,432.22115 C 434.99885,430.90117 438.38881,429.07719 441.37383,426.74922 L 441.37383,426.74922 C 442.24076,426.07124 442.73875,425.26725 442.86781,424.33725 C 442.99674,423.40727 442.73874,422.53128 442.09382,421.70928 L 442.09382,421.70928 C 441.49076,421.0463 440.75277,420.64431 439.87985,420.5033 C 439.0068,420.36231 438.16081,420.57231 437.34188,421.13329 L 437.34188,421.13329 L 437.34188,421.13329 C 434.80385,423.09228 431.99589,424.61025 428.91799,425.68723 C 425.83998,426.76422 422.60003,427.31021 419.19812,427.32521 L 419.19812,427.32521 C 410.79219,427.12722 403.84429,424.35526 398.35438,419.00932 C 392.86444,413.66341 390.02048,406.9315 389.8225,398.81358 L 389.8225,398.81358 C 390.02048,390.82772 392.86444,384.15582 398.35439,378.79784 C 403.84429,373.43996 410.79219,370.656 419.19812,370.44594 L 419.19812,370.44594 C 422.60002,370.45801 425.83998,371.01 428.91799,372.10192 C 431.99589,373.19397 434.80386,374.75394 437.34188,376.78186 L 437.34188,376.78186 C 438.16081,377.34291 439.0068,377.55291 439.87985,377.41185 C 440.75278,377.27091 441.49076,376.86892 442.09382,376.20587 L 442.09382,376.20587 C 442.73274,375.37794 443.00274,374.51395 442.90381,373.6139 C 442.80474,372.71398 442.39075,371.99399 441.66183,371.45393 L 441.66183,371.45393 C 438.5388,368.98803 435.06485,367.08005 431.23996,365.73 C 427.41496,364.38009 423.40101,363.6961 419.19812,363.67803 L 419.19812,363.67803 C 408.86622,363.9181 400.29834,367.32605 393.49445,373.9019 C 386.69052,380.47787 383.16257,388.78175 382.91059,398.81358 L 382.91059,398.81358 C 383.16257,408.98347 386.69052,417.37136 393.49445,423.97725 C 400.29833,430.58317 408.86621,434.00312 419.19812,434.23712 L 419.19812,434.23712 z M 466.76356,398.95758 L 466.76356,398.95758 C 467.00355,408.80647 470.2675,417.08036 476.55544,423.77925 C 482.84333,430.47817 490.71522,433.96412 500.17113,434.23712 L 500.17113,434.23712 C 509.68996,433.96413 517.57984,430.47817 523.84083,423.77926 C 530.10167,417.08036 533.34763,408.80647 533.5787,398.95758 L 533.5787,398.95758 C 533.34763,389.10875 530.10167,380.83486 523.84083,374.13589 C 517.57985,367.43704 509.68996,363.95109 500.17113,363.67803 L 500.17113,363.67803 C 490.71522,363.9511 482.84333,367.43705 476.55544,374.1359 C 470.2675,380.83487 467.00355,389.10875 466.76356,398.95758 L 466.76356,398.95758 z M 473.67547,398.95758 L 473.67547,398.95758 C 473.87945,390.90272 476.49542,384.18882 481.52337,378.81583 C 486.55128,373.44296 492.76719,370.653 500.17113,370.44594 L 500.17113,370.44594 C 507.57499,370.653 513.7909,373.44297 518.81889,378.81584 C 523.84676,384.18882 526.46272,390.90272 526.66679,398.95758 L 526.66679,398.95758 C 526.46273,407.0065 523.84676,413.6964 518.81889,419.02731 C 513.7909,424.35826 507.57498,427.12422 500.17113,427.32521 L 500.17113,427.32521 C 492.76719,427.12422 486.55128,424.35826 481.52337,419.02732 C 476.49541,413.69641 473.87945,407.0065 473.67547,398.95758 L 473.67547,398.95758 z M 661.01822,430.92516 C 661.03911,431.81916 661.35711,432.58715 661.97221,433.22913 C 662.58709,433.87113 663.37308,434.20712 664.33018,434.23712 C 665.35605,434.20712 666.18403,433.87113 666.81414,433.22913 C 667.44401,432.58714 667.76801,431.81915 667.78613,430.92516 L 667.78613,392.47766 C 667.58201,384.35381 664.78605,377.5979 659.39824,372.20992 C 654.0102,366.82206 647.2543,364.0261 639.1305,363.82203 C 633.66449,363.8881 628.72055,365.26808 624.29869,367.96198 C 619.87668,370.65601 616.37273,374.26795 613.78683,378.79784 C 611.27879,374.26795 607.83484,370.656 603.45496,367.96197 C 599.07496,365.26807 594.11903,363.88809 588.58715,363.82203 C 584.16217,363.8551 580.08823,364.76109 576.36531,366.53999 C 572.64233,368.31904 569.46838,370.773 566.84343,373.9019 L 566.84343,367.13399 C 566.82541,366.17706 566.50142,365.39107 565.87145,364.77601 C 565.24143,364.16109 564.41345,363.8431 563.38748,363.82203 C 562.49348,363.8431 561.72549,364.1611 561.08351,364.77602 C 560.4415,365.39108 560.1055,366.17707 560.07552,367.13399 L 560.07552,391.32567 L 560.07552,392.47766 L 560.07552,430.92516 L 560.07552,431.64515 C 560.3035,432.31115 560.6755,432.88714 561.19151,433.37313 C 561.70749,433.85913 562.29548,434.14713 562.95548,434.23712 L 563.38748,434.23712 L 563.81947,434.23712 C 564.08345,434.26112 564.27545,434.21312 564.39546,434.09312 C 564.54844,434.08412 564.71044,434.03012 564.88146,433.93112 C 565.05244,433.83212 565.17844,433.74213 565.25945,433.66113 C 565.76643,433.36713 566.15642,432.98314 566.42944,432.50914 C 566.70241,432.03515 566.84041,431.50716 566.84343,430.92516 L 566.84343,392.47766 C 566.99341,386.33678 569.10538,381.19486 573.17935,377.05186 C 577.25327,372.90897 582.3892,370.755 588.58715,370.58994 C 594.78503,370.755 599.92095,372.90897 603.99496,377.05186 C 608.06884,381.19486 610.18081,386.33679 610.33087,392.47766 L 610.33087,430.92516 L 610.33087,431.21316 L 610.33087,431.64515 C 610.45081,431.78916 610.49881,431.93315 610.47487,432.07715 C 610.5948,432.24515 610.6428,432.34115 610.61887,432.36515 C 610.68781,432.43115 610.7298,432.47914 610.74487,432.50914 C 610.7598,432.53915 610.7658,432.58715 610.76287,432.65314 C 610.8288,432.65614 610.8768,432.68615 610.90687,432.74314 C 610.9368,432.80015 610.9848,432.86614 611.05086,432.94114 L 611.48286,433.37313 C 611.62679,433.54113 611.77079,433.63713 611.91485,433.66113 C 612.05879,433.74213 612.20278,433.83213 612.34685,433.93112 C 612.49078,434.03012 612.63478,434.08412 612.77884,434.09312 C 612.78178,434.09912 612.81178,434.12312 612.86884,434.16512 C 612.92578,434.20712 612.99178,434.23112 613.06684,434.23712 L 613.35483,434.23712 L 613.78683,434.23712 C 614.36275,434.23712 614.93875,434.09312 615.51481,433.80513 C 615.88373,433.59213 616.22573,433.33413 616.54079,433.03113 C 616.85572,432.72814 617.08972,432.36215 617.24278,431.93315 L 617.24278,431.64515 C 617.24871,431.64216 617.27271,431.61216 617.31478,431.55516 C 617.35671,431.49816 617.38071,431.43216 617.38678,431.35716 L 617.38678,430.92516 L 617.38678,392.47766 C 617.54571,386.33678 619.67568,381.19486 623.7767,377.05186 C 627.87756,372.90897 632.99549,370.755 639.1305,370.58994 C 645.31632,370.755 650.44025,372.90897 654.50231,377.05186 C 658.56414,381.19486 660.73611,386.33679 661.01822,392.47766 L 661.01822,430.92516 L 661.01822,430.92516 z M 726.27589,434.23712 C 732.31477,434.17412 737.80469,432.71614 742.74568,429.86318 C 747.68655,427.01022 751.7005,423.14027 754.78753,418.25333 C 755.27945,417.36535 755.41145,416.47737 755.18352,415.58936 C 754.95546,414.70139 754.43946,413.9574 753.63554,413.35739 C 752.87648,412.91941 752.05449,412.78742 751.16957,412.96139 C 750.28452,413.13541 749.57053,413.65141 749.0276,414.50938 C 746.58557,418.50834 743.36961,421.6343 739.37973,423.88725 C 735.38973,426.14023 731.02179,427.28622 726.27589,427.32521 C 718.81796,427.16022 712.53004,424.57426 707.41214,419.56731 C 702.29418,414.5604 699.46222,408.12249 698.91625,400.25356 L 756.8035,400.25356 C 757.76641,400.23859 758.5764,399.9446 759.23347,399.37157 C 759.89038,398.79861 760.23238,398.03662 760.25946,397.0856 L 760.25946,396.65361 L 760.25946,396.50961 C 759.34739,387.07778 755.77144,379.30189 749.53159,373.18191 C 743.29161,367.06205 735.53972,363.8941 726.27589,363.67803 C 716.53199,363.9301 708.4441,367.38605 702.0122,374.0459 C 695.58027,380.70586 692.24432,389.05775 692.00434,399.10157 C 692.24432,409.00747 695.58028,417.27536 702.0122,423.90525 C 708.4441,430.53517 716.53198,433.97912 726.27589,434.23712 L 726.27589,434.23712 z M 726.27589,370.58994 C 732.90576,370.716 738.65368,372.87597 743.51967,377.06986 C 748.38555,381.26386 751.4695,386.73578 752.77155,393.48565 L 699.34824,393.48565 C 700.77621,386.67278 703.93216,381.18286 708.81612,377.01586 C 713.70003,372.84897 719.51994,370.707 726.27589,370.58994 L 726.27589,370.58994 z"
       id="text2399" />
  </g>
</svg>
